HIERARCHY
ROOT Hips
{
	OFFSET 0.000000 0.000000 0.000000
	CHANNELS 6 Xposition Yposition Zposition Zrotation Yrotation Xrotation 
	JOINT LowerBack
	{
		OFFSET 0.000000 0.000000 0.000000
		CHANNELS 3 Zrotation Yrotation Xrotation
		JOINT Spine
		{
			OFFSET 0.028270 2.035590 -0.193380
			CHANNELS 3 Zrotation Yrotation Xrotation
			JOINT Spine1
			{
				OFFSET 0.056720 2.048850 -0.042750
				CHANNELS 3 Zrotation Yrotation Xrotation
				JOINT Neck
				{
					OFFSET 0.000000 0.000000 0.000000
					CHANNELS 3 Zrotation Yrotation Xrotation
					JOINT Neck1
					{
						OFFSET -0.054170 1.746240 0.172020
						CHANNELS 3 Zrotation Yrotation Xrotation
						JOINT Head
						{
							OFFSET 0.104070 1.761360 -0.123970
							CHANNELS 3 Zrotation Yrotation Xrotation
							End Site
							{
								OFFSET 0.000000 0.000000 0.000000
							}
						}
					}
				}
				JOINT LeftShoulder
				{
					OFFSET 0.000000 0.000000 0.000000
					CHANNELS 3 Zrotation Yrotation Xrotation
					JOINT LeftArm
					{
						OFFSET 3.362410 1.200890 -0.311210
						CHANNELS 3 Zrotation Yrotation Xrotation
						JOINT LeftForeArm
						{
							OFFSET 4.983000 -0.000000 -0.000000
							CHANNELS 3 Zrotation Yrotation Xrotation
							JOINT LeftHand
							{
								OFFSET 3.483560 -0.000000 -0.000000
								CHANNELS 3 Zrotation Yrotation Xrotation
								JOINT LeftFingerBase
								{
									OFFSET 0.000000 0.000000 0.000000
									CHANNELS 3 Zrotation Yrotation Xrotation
									JOINT LeftHandIndex1
									{
										OFFSET 0.715260 -0.000000 -0.000000
										CHANNELS 3 Zrotation Yrotation Xrotation
										End Site
										{
											OFFSET 0.000000 0.000000 0.000000
										}
									}
								}
								JOINT LThumb
								{
									OFFSET 0.000000 0.000000 0.000000
									CHANNELS 3 Zrotation Yrotation Xrotation
									End Site
									{
										OFFSET 0.000000 0.000000 0.000000
									}
								}
							}
						}
					}
				}
				JOINT RightShoulder
				{
					OFFSET 0.000000 0.000000 0.000000
					CHANNELS 3 Zrotation Yrotation Xrotation
					JOINT RightArm
					{
						OFFSET -3.136600 1.374050 -0.404650
						CHANNELS 3 Zrotation Yrotation Xrotation
						JOINT RightForeArm
						{
							OFFSET -5.241900 -0.000000 -0.000000
							CHANNELS 3 Zrotation Yrotation Xrotation
							JOINT RightHand
							{
								OFFSET -3.444170 -0.000000 -0.000000
								CHANNELS 3 Zrotation Yrotation Xrotation
								JOINT RightFingerBase
								{
									OFFSET 0.000000 0.000000 0.000000
									CHANNELS 3 Zrotation Yrotation Xrotation
									JOINT RightHandIndex1
									{
										OFFSET -0.622530 -0.000000 -0.000000
										CHANNELS 3 Zrotation Yrotation Xrotation
										End Site
										{
											OFFSET 0.000000 0.000000 0.000000
										}
									}
								}
								JOINT RThumb
								{
									OFFSET 0.000000 0.000000 0.000000
									CHANNELS 3 Zrotation Yrotation Xrotation
									End Site
									{
										OFFSET 0.000000 0.000000 0.000000
									}
								}
							}
						}
					}
				}
			}
		}
	}
}
}
MOTION
Frames: 6
Frame Time: 0.008333
23.726562 15.912128 1.375118 176.707582 -85.997615 -158.608142 -13.315435 3.793304 -7.086007 -3.601238 4.759089 -4.880201 -4.484884 4.560817 -0.798274 3.524209 -0.758344 -8.481350 -1.515632 -0.102836 -0.284588 0.000000 0.000000 0.000000 -4.738213 20.822622 2.344120 -31.516891 23.786637 -4.541480 -5.067781 -2.338954 -0.022729 8.494199 8.074532 0.612092 -0.163348 -0.006914 0.000000 0.000000 0.000000 0.000000 0.000000 0.000000 0.000000 -0.052786 7.129041 0.387185 47.101944 53.159364 23.286220 0.810866 72.480743 -0.005676 -0.210917 7.081610 -0.010064 -0.045333 -0.531881 0.000000 0.000000 0.000000 0.000000 0.000000 0.000000 0.000000 
23.534134 15.909911 1.389475 174.412959 -85.932581 -156.866467 -13.419623 3.693128 -6.543372 -3.659203 4.648444 -4.814083 -4.769698 4.462483 -0.951318 4.009290 -0.343798 -8.513816 -1.769220 -0.121718 -0.316682 0.000000 0.000000 0.000000 -5.557319 20.414023 2.460987 -32.354039 22.738746 -3.491891 -5.148482 -2.868075 -0.023765 8.333176 8.635518 0.640604 -0.149162 0.004150 -0.000000 0.000000 0.000000 0.000000 0.000000 0.000000 0.000000 1.322956 7.860807 0.577837 49.476012 51.509394 24.575386 0.877724 71.731283 -0.006299 -0.584597 7.148251 -0.036524 -0.024953 -0.526033 0.000000 0.000000 0.000000 0.000000 0.000000 0.000000 0.000000 
23.347552 15.907522 1.405325 171.537911 -85.931294 -154.555300 -13.500921 3.564894 -5.944443 -3.705726 4.507476 -4.737807 -5.046048 4.334188 -1.120376 4.473775 0.084170 -8.517652 -2.033795 -0.141774 -0.343082 0.000000 0.000000 0.000000 -6.274281 19.967938 2.603657 -33.393331 21.428229 -2.469097 -5.210228 -3.284254 -0.024038 8.267322 8.985961 0.659528 -0.134509 0.016213 -0.000000 0.000000 0.000000 0.000000 0.000000 0.000000 0.000000 2.722375 8.582926 0.722342 51.855763 49.644629 25.718452 0.941155 70.746893 -0.007994 -1.101683 7.295074 -0.073899 -0.003555 -0.520522 -0.000000 0.000000 0.000000 0.000000 0.000000 0.000000 0.000000 
23.166516 15.905135 1.422573 168.224401 -85.972137 -151.799637 -13.551803 3.416869 -5.314882 -3.739846 4.344494 -4.654433 -5.309002 4.183318 -1.296536 4.913720 0.511178 -8.491408 -2.304555 -0.162613 -0.362765 0.000000 0.000000 0.000000 -6.874633 19.494875 2.762985 -34.637311 19.814637 -1.482329 -5.248356 -3.548596 -0.023452 8.311410 9.079752 0.667966 -0.119190 0.027964 -0.000000 0.000000 0.000000 0.000000 0.000000 0.000000 0.000000 4.127995 9.264575 0.817905 54.210606 47.588038 26.681610 1.000199 69.480171 -0.010767 -1.764470 7.541054 -0.124293 0.018052 -0.515390 -0.000000 0.000000 0.000000 0.000000 0.000000 0.000000 0.000000 
22.990442 15.903246 1.441192 164.655909 -86.029367 -148.770048 -13.565415 3.260228 -4.680213 -3.761223 4.170831 -4.568385 -5.554949 4.020102 -1.474995 5.325378 0.930375 -8.430494 -2.575948 -0.183821 -0.373590 0.000000 0.000000 0.000000 -7.357854 18.984478 2.927186 -36.075094 17.891999 -0.561458 -5.259425 -3.623576 -0.021974 8.473978 8.864132 0.662716 -0.103155 0.037940 -0.000000 0.000000 0.000000 0.000000 0.000000 0.000000 0.000000 5.517377 9.884653 0.867338 56.519735 45.354443 27.421453 1.053506 67.893886 -0.014452 -2.554945 7.896711 -0.189312 0.038780 -0.510424 -0.000000 0.000000 0.000000 0.000000 0.000000 0.000000 0.000000 
22.818462 15.902501 1.461077 160.979019 -86.083873 -145.599384 -13.541684 3.103937 -4.063295 -3.771385 3.996150 -4.482539 -5.782408 3.853354 -1.646514 5.710740 1.329385 -8.336788 -2.842580 -0.204894 -0.375297 0.000000 0.000000 0.000000 -7.733615 18.436326 3.083472 -37.681775 15.645830 0.308021 -5.241681 -3.480597 -0.019696 8.751435 8.306137 0.639073 -0.086518 0.044874 -0.000000 0.000000 0.000000 0.000000 0.000000 0.000000 0.000000 6.877253 10.417449 0.879006 58.757735 42.978192 27.898880 1.099313 65.959226 -0.018831 -3.450381 8.364137 -0.270862 0.057651 -0.505145 -0.000000 0.000000 0.000000 0.000000 0.000000 0.000000 0.000000 
